<svg width="25" height="24" viewBox="0 0 25 24" fill="none" xmlns="http://www.w3.org/2000/svg">
<path d="M19.9068 17.8339L19.2401 9.83391C19.1537 8.79732 18.2872 8 17.247 8H16.0873H8.08728H6.92755C5.88737 8 5.02084 8.79732 4.93446 9.83391L4.26779 17.8339C4.17062 18.9999 5.0908 20 6.26088 20H17.9137C19.0838 20 20.0039 18.9999 19.9068 17.8339Z" fill="black" fill-opacity="0.15"/>
<path d="M8.08728 11.01V11M16.0873 11.01V11M8.08728 8V7C8.08728 5.93913 8.50871 4.92172 9.25885 4.17157C10.009 3.42143 11.0264 3 12.0873 3C13.1481 3 14.1656 3.42143 14.9157 4.17157C15.6659 4.92172 16.0873 5.93913 16.0873 7V8M8.08728 8H6.92755C5.88737 8 5.02084 8.79732 4.93446 9.83391L4.26779 17.8339C4.17062 18.9999 5.0908 20 6.26088 20H17.9137C19.0838 20 20.0039 18.9999 19.9068 17.8339L19.2401 9.83391C19.1537 8.79732 18.2872 8 17.247 8H16.0873M8.08728 8H16.0873" stroke="white" stroke-width="2" stroke-linecap="round" stroke-linejoin="round"/>
</svg>
